# xmcd
# 
# Track frame offsets:
#     150
#     28145
#     56032
#     81713
#     106116
#     133578
#     159156
#     185183
#     210031
#     238118
#     261087
#     291367
# 
# Disc length: 4357
# 
# Revision: 1
# Processed by: cddbd v1.5.2PL0 Copyright (c) Steve Scherf et al.
# Submitted via: fre:ac v1.0.17
# 
DISCID=ac11030c
DTITLE=M People - Bizarre Fruit
DYEAR=2005
DGENRE=Dance and House
TTITLE0=Sight For Sore Eyes
TTITLE1=Search For The Hero
TTITLE2=Open Your Heart
TTITLE3=Love Rendezvous
TTITLE4=Precious Part
TTITLE5=Sugar Town
TTITLE6=Walk Away
TTITLE7=Drive Theme
TTITLE8=Padlock
TTITLE9=And Finally
TTITLE10=Itchycoo Park
TTITLE11=Itchycoo Park (morales classic club mix)
EXTD=
EXTT0=
EXTT1=
EXTT2=
EXTT3=
EXTT4=
EXTT5=
EXTT6=
EXTT7=
EXTT8=
EXTT9=
EXTT10=
EXTT11=
PLAYORDER=
